<svg version="1.1" xmlns="http://www.w3.org/2000/svg" viewBox="0 0 496 518" width="496" height="518">
  <!-- svg-source:excalidraw -->
  
  <defs>
    <style class="style-fonts">
      @font-face {
        font-family: "Virgil";
        src: url("https://excalidraw.com/Virgil.woff2");
      }
      @font-face {
        font-family: "Cascadia";
        src: url("https://excalidraw.com/Cascadia.woff2");
      }
    </style>
  </defs>
  <rect x="0" y="0" width="496" height="518" fill="#ffffff"></rect><g stroke-linecap="round" transform="translate(10 10) rotate(0 238 249)"><path d="M33.39 -0.17 L443.63 -0.65 L457.18 0.1 L469.83 8.27 L475.48 16.78 L476.43 31.1 L477.55 464.91 L474.62 479.93 L466.51 489.63 L459.47 494.99 L445.36 496.23 L31.92 498.6 L18.99 496.11 L6.78 491.25 L0.14 478.79 L-1.25 467.51 L-0.57 31.94 L0.38 16.11 L9.38 9.33 L16.12 1.89 L30.36 0.87" stroke="none" stroke-width="0" fill="#fa5252"></path><path d="M32 0 M32 0 C161.54 2.12, 289.89 1.71, 444 0 M32 0 C127.05 1.92, 222.6 1.58, 444 0 M444 0 C467.06 -1.06, 477.02 11.36, 476 32 M444 0 C464.33 -2.13, 475.56 8.62, 476 32 M476 32 C476.87 187.81, 477.69 343.86, 476 466 M476 32 C475.42 137.39, 475.07 242.24, 476 466 M476 466 C474.62 488.43, 463.61 496.61, 444 498 M476 466 C476.89 486.36, 467.29 497.08, 444 498 M444 498 C349.32 497.22, 256.7 497.18, 32 498 M444 498 C317.55 499.59, 191.07 499.4, 32 498 M32 498 C8.98 498.92, -1.59 487.43, 0 466 M32 498 C11.84 497.76, 0.06 487.14, 0 466 M0 466 C0.32 379.2, -1.04 291.56, 0 32 M0 466 C-1.79 343.09, -1.13 221.53, 0 32 M0 32 C-0.92 11.31, 10.55 -0.25, 32 0 M0 32 C-0.77 8.74, 10.51 1.49, 32 0" stroke="#c92a2a" stroke-width="1" fill="none"></path></g><g stroke-linecap="round" transform="translate(38 113) rotate(0 80.5 36.5)"><path d="M18.7 -1.77 L141.64 -0.96 L154.21 3.9 L159.47 7.23 L159.58 15.54 L162.54 53.73 L157.35 66.2 L153.07 70.57 L143.99 72.15 L16.97 73.16 L7.59 70.12 L1.22 65.65 L1.37 58.74 L-0.28 13.79 L6.05 5.7 L9.66 2.39 L20.18 1.99" stroke="none" stroke-width="0" fill="#fa5252"></path><path d="M18.25 0 M18.25 0 C48.01 -0.87, 77.75 0.95, 142.75 0 M18.25 0 C46.58 -1.29, 76.28 -0.59, 142.75 0 M142.75 0 C153.55 0.61, 160 6.05, 161 18.25 M142.75 0 C155.64 1.61, 160.52 7.32, 161 18.25 M161 18.25 C162.93 29.1, 161.64 40.14, 161 54.75 M161 18.25 C160.76 28.87, 161.37 41.35, 161 54.75 M161 54.75 C160.15 65.37, 154.93 71.72, 142.75 73 M161 54.75 C159.84 65.54, 156.83 71.78, 142.75 73 M142.75 73 C105.97 74.32, 66.14 74.9, 18.25 73 M142.75 73 C107.25 72.01, 72.18 71.36, 18.25 73 M18.25 73 C7.04 73.25, 1.99 66.37, 0 54.75 M18.25 73 C3.96 75.18, -1.34 68.83, 0 54.75 M0 54.75 C-0.07 46.58, 0.51 37.02, 0 18.25 M0 54.75 C0.09 39.68, 0.33 24.99, 0 18.25 M0 18.25 C1.52 4.34, 6.19 1.32, 18.25 0 M0 18.25 C-0.25 6.08, 6.04 -0.06, 18.25 0" stroke="#fff" stroke-width="1" fill="none"></path></g><g transform="translate(54.8330078125 137.5) rotate(0 63.6669921875 12)"><text x="63.6669921875" y="0" font-family="Virgil, Segoe UI Emoji" font-size="20px" fill="#fff" text-anchor="middle" style="white-space: pre;" direction="ltr" dominant-baseline="text-before-edge">Business Logic</text></g><g stroke-linecap="round" transform="translate(34 287) rotate(0 60.5 101.5)"><path d="M30.16 1.68 L99.28 2.02 L102.63 1.79 L113.94 7.5 L117.65 16.53 L119.5 29.56 L120.7 179 L117.83 189.41 L113.71 194.77 L102.02 202.23 L90.43 201.4 L22.42 200.84 L11.17 199.38 L6.34 197.43 L2.28 186.13 L-1.24 170.96 L0.48 24.1 L5.73 10.74 L7.1 8.46 L18.34 3.84 L30.71 -0.23" stroke="none" stroke-width="0" fill="#228be6"></path><path d="M30.25 0 M30.25 0 C50.14 -1.42, 71.18 0.86, 90.75 0 M30.25 0 C44.33 0.03, 58.6 -0.24, 90.75 0 M90.75 0 C110.66 1.06, 119.56 8.41, 121 30.25 M90.75 0 C113.2 0.46, 119.55 8.09, 121 30.25 M121 30.25 C123.1 79.65, 119.76 129.46, 121 172.75 M121 30.25 C121.25 83.64, 119.9 136.76, 121 172.75 M121 172.75 C121.79 191.51, 109.01 201.79, 90.75 203 M121 172.75 C120.54 191.7, 109.59 204.83, 90.75 203 M90.75 203 C76.78 203.57, 66.47 204.75, 30.25 203 M90.75 203 C65.92 203.93, 43.66 202.64, 30.25 203 M30.25 203 C10.85 204.31, 0.22 192.45, 0 172.75 M30.25 203 C11.67 201.92, 0.47 193.14, 0 172.75 M0 172.75 C1.59 132.64, 1.94 94.13, 0 30.25 M0 172.75 C0.27 117.45, 0.84 61.92, 0 30.25 M0 30.25 C-0.5 8.56, 8.46 1.57, 30.25 0 M0 30.25 C1.95 8.04, 12.3 0.9, 30.25 0" stroke="#fff" stroke-width="1" fill="none"></path></g><g transform="translate(46.0771484375 328.5) rotate(0 48.4228515625 60)"><text x="48.4228515625" y="0" font-family="Virgil, Segoe UI Emoji" font-size="20px" fill="#fff" text-anchor="middle" style="white-space: pre;" direction="ltr" dominant-baseline="text-before-edge"></text><text x="48.4228515625" y="24" font-family="Virgil, Segoe UI Emoji" font-size="20px" fill="#fff" text-anchor="middle" style="white-space: pre;" direction="ltr" dominant-baseline="text-before-edge"></text><text x="48.4228515625" y="48" font-family="Virgil, Segoe UI Emoji" font-size="20px" fill="#fff" text-anchor="middle" style="white-space: pre;" direction="ltr" dominant-baseline="text-before-edge"></text><text x="48.4228515625" y="72" font-family="Virgil, Segoe UI Emoji" font-size="20px" fill="#fff" text-anchor="middle" style="white-space: pre;" direction="ltr" dominant-baseline="text-before-edge">Web Store </text><text x="48.4228515625" y="96" font-family="Virgil, Segoe UI Emoji" font-size="20px" fill="#fff" text-anchor="middle" style="white-space: pre;" direction="ltr" dominant-baseline="text-before-edge">App</text></g><g stroke-linecap="round" transform="translate(184 284) rotate(0 60.5 101.5)"><path d="M7.4 7.75 C7.4 7.75, 7.4 7.75, 7.4 7.75 M7.4 7.75 C7.4 7.75, 7.4 7.75, 7.4 7.75 M7.13 14.15 C9.53 10.23, 14.42 5.6, 17.63 2.08 M7.13 14.15 C8.78 10.82, 11.98 9.12, 17.63 2.08 M2.94 25.08 C7.59 16.59, 17.19 9.31, 23.27 1.68 M2.94 25.08 C9.02 17.27, 16.58 8.86, 23.27 1.68 M2.68 31.48 C7.32 24.04, 15.48 17, 29.57 0.53 M2.68 31.48 C13.12 20.28, 23.97 9, 29.57 0.53 M3.07 37.12 C11.57 30.4, 16.1 21.82, 33.25 2.4 M3.07 37.12 C14.75 24.04, 25.28 11.92, 33.25 2.4 M2.81 43.52 C13.22 31.38, 23.21 20.56, 38.24 2.76 M2.81 43.52 C16.18 27.17, 30.41 10.88, 38.24 2.76 M2.55 49.91 C15.86 38.86, 23.88 26.01, 43.88 2.37 M2.55 49.91 C16.4 33.24, 31.02 18.32, 43.88 2.37 M2.94 55.56 C12.76 44.41, 22.58 31.02, 48.87 2.73 M2.94 55.56 C11.18 44.63, 20.82 34.01, 48.87 2.73 M2.68 61.96 C13.74 49.05, 23.62 37.49, 54.51 2.33 M2.68 61.96 C19.76 42.31, 36.84 23.53, 54.51 2.33 M2.42 68.35 C22.53 46.11, 44.71 19.7, 59.5 2.69 M2.42 68.35 C19.49 48.59, 35.78 27.63, 59.5 2.69 M2.81 74 C26.41 45.14, 50.55 20.43, 64.48 3.05 M2.81 74 C19.52 53.87, 37.87 33.54, 64.48 3.05 M2.55 80.39 C17.55 60.56, 35.04 45.22, 70.13 2.66 M2.55 80.39 C18.91 61.69, 35.37 40.71, 70.13 2.66 M2.95 86.04 C17.7 68.14, 34.53 52.35, 75.11 3.02 M2.95 86.04 C23.76 62.48, 44.27 39.75, 75.11 3.02 M2.68 92.43 C30.57 63.08, 55.65 29.63, 80.76 2.62 M2.68 92.43 C24.03 67.45, 46.55 41.64, 80.76 2.62 M2.42 98.83 C25.6 74.25, 44.93 49.51, 85.74 2.98 M2.42 98.83 C25.05 73.99, 45.89 48.63, 85.74 2.98 M2.82 104.48 C25.22 78.92, 45.69 52.65, 91.39 2.59 M2.82 104.48 C35.53 65.77, 69.8 28.25, 91.39 2.59 M2.56 110.87 C30.61 75.42, 60.47 44.5, 98.34 0.69 M2.56 110.87 C27.67 82.4, 55.3 50.83, 98.34 0.69 M2.3 117.27 C33.1 82.63, 61.02 49.36, 102.67 1.8 M2.3 117.27 C37.53 75.72, 72.85 35.52, 102.67 1.8 M2.69 122.91 C41.8 78.47, 78.8 36.85, 106.35 3.67 M2.69 122.91 C29.48 93.14, 57.72 62.93, 106.35 3.67 M2.43 129.31 C25.34 101.44, 48.48 76.06, 110.02 5.54 M2.43 129.31 C40.51 84.49, 78.83 40.08, 110.02 5.54 M2.17 135.71 C29.11 105.78, 51.69 75.22, 113.7 7.41 M2.17 135.71 C31.01 104, 58.16 71.1, 113.7 7.41 M2.56 141.35 C44.25 91.88, 85.62 45.22, 115.4 11.54 M2.56 141.35 C27.26 112.21, 52.14 82.6, 115.4 11.54 M2.3 147.75 C41.25 103.79, 77.47 62.99, 117.77 14.92 M2.3 147.75 C44.75 100.08, 89.19 49.77, 117.77 14.92 M2.69 153.39 C41.09 107.02, 80.62 65.13, 120.13 18.3 M2.69 153.39 C34.06 118.41, 64.82 82.85, 120.13 18.3 M2.43 159.79 C26.93 127.87, 57.25 94.43, 121.18 23.19 M2.43 159.79 C30.07 125.2, 59.56 91.32, 121.18 23.19 M2.17 166.19 C34.57 130.14, 65.94 95.74, 121.57 28.83 M2.17 166.19 C39.88 124.14, 76.78 81.52, 121.57 28.83 M1.25 173.34 C26.67 143.71, 51.77 116.2, 123.94 32.21 M1.25 173.34 C48.75 117.79, 96.09 63.51, 123.94 32.21 M1.65 178.98 C39.47 133.41, 79.1 88.16, 123.68 38.61 M1.65 178.98 C34.13 143.49, 66.65 106.44, 123.68 38.61 M2.7 183.87 C31.27 148.1, 64.77 112.74, 123.41 45.01 M2.7 183.87 C30.37 155.63, 55.34 125.63, 123.41 45.01 M4.41 188.01 C39.85 143.83, 76.63 102.14, 123.81 50.65 M4.41 188.01 C44.99 141.44, 84.8 96.46, 123.81 50.65 M6.77 191.39 C32.32 163.26, 55.15 134.89, 123.55 57.05 M6.77 191.39 C31.46 162.53, 56.65 132.81, 123.55 57.05 M7.82 196.27 C29.15 166.77, 52.68 139.32, 123.29 63.45 M7.82 196.27 C33.1 166.45, 58.38 136.26, 123.29 63.45 M11.49 198.14 C48.76 152.69, 84.64 112.09, 123.68 69.09 M11.49 198.14 C56.96 148.28, 99.11 98.45, 123.68 69.09 M14.51 200.77 C37.08 174.13, 60.02 150.13, 123.42 75.49 M14.51 200.77 C49.84 162.59, 83.49 121.85, 123.42 75.49 M18.19 202.64 C45.19 171.93, 71.88 140.95, 123.81 81.13 M18.19 202.64 C42.62 175.26, 67.06 146.52, 123.81 81.13 M23.18 203 C53.9 167.76, 83.62 131.04, 123.55 87.53 M23.18 203 C52.83 169.49, 85.08 132.41, 123.55 87.53 M28.82 202.6 C49.91 178.13, 72.05 152.5, 123.29 93.92 M28.82 202.6 C59.33 166.93, 88.95 130.91, 123.29 93.92 M33.81 202.96 C59.26 170.48, 87.04 137.01, 123.69 99.57 M33.81 202.96 C66.2 164.92, 99.45 126.19, 123.69 99.57 M39.45 202.57 C63.62 170.55, 93.24 142.83, 123.42 105.97 M39.45 202.57 C69.3 170.18, 96.05 137.96, 123.42 105.97 M44.44 202.93 C65.41 182.25, 83.22 159.73, 123.16 112.36 M44.44 202.93 C73.96 168.03, 105.82 132.45, 123.16 112.36 M49.42 203.29 C76.63 171.54, 107 140.11, 123.56 118.01 M49.42 203.29 C69.15 181.66, 87.38 161.33, 123.56 118.01 M55.07 202.89 C75.81 179.86, 94.04 155.86, 123.3 124.4 M55.07 202.89 C76.33 178.28, 97.59 152.97, 123.3 124.4 M60.05 203.25 C79.64 181.29, 94.44 160.31, 123.03 130.8 M60.05 203.25 C79.27 178.38, 101 154.98, 123.03 130.8 M65.7 202.86 C84.04 180.88, 102.99 160.28, 123.43 136.45 M65.7 202.86 C79.07 186.61, 91.63 172.19, 123.43 136.45 M70.68 203.22 C89.67 184.82, 103.25 163.78, 123.17 142.84 M70.68 203.22 C86.43 184.27, 102.63 163.96, 123.17 142.84 M76.33 202.83 C92.19 186.42, 107.42 167.44, 123.56 148.49 M76.33 202.83 C90.45 188.32, 103.44 172.49, 123.56 148.49 M81.31 203.19 C96.67 183.4, 112.86 168.66, 123.3 154.88 M81.31 203.19 C93.79 188.94, 106.21 175.95, 123.3 154.88 M86.3 203.55 C99.34 189.53, 112.56 172.98, 123.04 161.28 M86.3 203.55 C96.92 190.87, 108.91 178.83, 123.04 161.28 M91.29 203.91 C102.89 193.25, 112.52 181.7, 123.43 166.92 M91.29 203.91 C103.48 189.45, 113.79 176.69, 123.43 166.92 M97.59 202.76 C106.36 194.38, 110.67 187.45, 123.17 173.32 M97.59 202.76 C103.43 196.31, 111.08 186.89, 123.17 173.32 M103.88 201.61 C108.39 195.08, 112.65 189.7, 121.6 181.23 M103.88 201.61 C106.54 197.39, 111.95 193.67, 121.6 181.23" stroke="#82c91e" stroke-width="0.5" fill="none"></path><path d="M30.25 0 M30.25 0 C48.48 0.34, 68.33 -1.36, 90.75 0 M30.25 0 C53.36 0.43, 75.85 -0.03, 90.75 0 M90.75 0 C110.62 -0.84, 122.53 8.45, 121 30.25 M90.75 0 C111.12 -1.96, 122.03 11, 121 30.25 M121 30.25 C120.64 70.48, 118.88 111.78, 121 172.75 M121 30.25 C118.68 84.03, 119.74 139.55, 121 172.75 M121 172.75 C121.7 192.82, 111.37 204.81, 90.75 203 M121 172.75 C122.3 193.17, 111.55 203.88, 90.75 203 M90.75 203 C71.58 202.78, 52.96 203.87, 30.25 203 M90.75 203 C67.7 203.7, 46.87 203.03, 30.25 203 M30.25 203 C11.22 201.58, -1.7 191.76, 0 172.75 M30.25 203 C9.7 203.34, 1.62 191.34, 0 172.75 M0 172.75 C-0.77 123.19, -1.83 72.05, 0 30.25 M0 172.75 C0.29 138.01, -0.18 103.31, 0 30.25 M0 30.25 C-0.25 11.72, 11.29 1.87, 30.25 0 M0 30.25 C0.68 12.01, 7.97 1.19, 30.25 0" stroke="#fff" stroke-width="1" fill="none"></path></g><g transform="translate(200.818359375 325.5) rotate(0 43.681640625 60)"><text x="43.681640625" y="0" font-family="Virgil, Segoe UI Emoji" font-size="20px" fill="#fff" text-anchor="middle" style="white-space: pre;" direction="ltr" dominant-baseline="text-before-edge"></text><text x="43.681640625" y="24" font-family="Virgil, Segoe UI Emoji" font-size="20px" fill="#fff" text-anchor="middle" style="white-space: pre;" direction="ltr" dominant-baseline="text-before-edge"></text><text x="43.681640625" y="48" font-family="Virgil, Segoe UI Emoji" font-size="20px" fill="#fff" text-anchor="middle" style="white-space: pre;" direction="ltr" dominant-baseline="text-before-edge"></text><text x="43.681640625" y="72" font-family="Virgil, Segoe UI Emoji" font-size="20px" fill="#fff" text-anchor="middle" style="white-space: pre;" direction="ltr" dominant-baseline="text-before-edge">Mobile </text><text x="43.681640625" y="96" font-family="Virgil, Segoe UI Emoji" font-size="20px" fill="#fff" text-anchor="middle" style="white-space: pre;" direction="ltr" dominant-baseline="text-before-edge">Store App</text></g><g stroke-linecap="round" transform="translate(338 282) rotate(0 60.5 101.5)"><path d="M7.4 7.75 C7.4 7.75, 7.4 7.75, 7.4 7.75 M7.4 7.75 C7.4 7.75, 7.4 7.75, 7.4 7.75 M7.13 14.15 C10.29 10.15, 16.92 3.37, 17.63 2.08 M7.13 14.15 C11.43 10.55, 13.98 4.78, 17.63 2.08 M2.94 25.08 C8.77 17.96, 15.2 11.96, 23.27 1.68 M2.94 25.08 C9.69 17.24, 16.8 10, 23.27 1.68 M2.68 31.48 C11.22 18.29, 22.24 6.65, 29.57 0.53 M2.68 31.48 C9.32 25.21, 14.94 17.54, 29.57 0.53 M3.07 37.12 C12.37 27.55, 21.46 14.33, 33.25 2.4 M3.07 37.12 C9.87 29.92, 16.39 21.06, 33.25 2.4 M2.81 43.52 C13.24 31.12, 25.09 17.86, 38.24 2.76 M2.81 43.52 C16.1 29.53, 28.52 13.74, 38.24 2.76 M2.55 49.91 C17.71 34.29, 28.75 21.2, 43.88 2.37 M2.55 49.91 C16.2 33.68, 30.21 18.01, 43.88 2.37 M2.94 55.56 C17.88 36.26, 32.92 20.79, 48.87 2.73 M2.94 55.56 C18.66 38.51, 33.42 19.8, 48.87 2.73 M2.68 61.96 C18.08 44.74, 32.71 28.09, 54.51 2.33 M2.68 61.96 C18.91 43.19, 34.44 25.67, 54.51 2.33 M2.42 68.35 C26.3 43.08, 45.77 16.91, 59.5 2.69 M2.42 68.35 C18.92 49.03, 35.86 30.33, 59.5 2.69 M2.81 74 C20.65 53.67, 36.92 31.76, 64.48 3.05 M2.81 74 C19.04 53.95, 37.19 34.51, 64.48 3.05 M2.55 80.39 C26.42 52.45, 50.72 27.97, 70.13 2.66 M2.55 80.39 C28.46 50.18, 54.44 20.43, 70.13 2.66 M2.95 86.04 C24.54 62.04, 45.03 35.64, 75.11 3.02 M2.95 86.04 C29.03 57.46, 53.22 29.01, 75.11 3.02 M2.68 92.43 C20.45 75.32, 36.13 54.45, 80.76 2.62 M2.68 92.43 C33.93 58.69, 63.43 23.78, 80.76 2.62 M2.42 98.83 C19.85 76, 41.52 56, 85.74 2.98 M2.42 98.83 C20.21 76.45, 39.86 55.45, 85.74 2.98 M2.82 104.48 C21.85 82.99, 42.3 56.72, 91.39 2.59 M2.82 104.48 C26.38 76.4, 51.66 49.75, 91.39 2.59 M2.56 110.87 C40.32 68.02, 79.75 24, 98.34 0.69 M2.56 110.87 C25.22 83.89, 48.66 56.69, 98.34 0.69 M2.3 117.27 C40 75.16, 74.86 32.98, 102.67 1.8 M2.3 117.27 C23.26 93.91, 43.85 70.08, 102.67 1.8 M2.69 122.91 C33.83 87.5, 61.31 53.97, 106.35 3.67 M2.69 122.91 C36.81 83.12, 72.42 43.16, 106.35 3.67 M2.43 129.31 C33.48 90.91, 66.94 56.12, 110.02 5.54 M2.43 129.31 C42.12 82.96, 83.15 36.36, 110.02 5.54 M2.17 135.71 C27.67 104.08, 55.52 75.46, 113.7 7.41 M2.17 135.71 C28.68 104.61, 54.47 76.2, 113.7 7.41 M2.56 141.35 C43.52 94.39, 81.86 49.88, 115.4 11.54 M2.56 141.35 C45.92 89.8, 88.35 41.73, 115.4 11.54 M2.3 147.75 C39.42 107.46, 74.25 65.99, 117.77 14.92 M2.3 147.75 C34.69 109.58, 66.26 72.64, 117.77 14.92 M2.69 153.39 C46.52 101.06, 90.43 52.72, 120.13 18.3 M2.69 153.39 C27.16 124.55, 52.36 96.83, 120.13 18.3 M2.43 159.79 C32.24 129.03, 60.34 96.61, 121.18 23.19 M2.43 159.79 C30.96 126.84, 59.2 96.56, 121.18 23.19 M2.17 166.19 C40.38 122.28, 76.2 78.6, 121.57 28.83 M2.17 166.19 C34.84 128.25, 67.72 92.72, 121.57 28.83 M1.25 173.34 C31.11 136.73, 62.58 102.35, 123.94 32.21 M1.25 173.34 C31.31 140.49, 61.71 107.19, 123.94 32.21 M1.65 178.98 C47.07 123.46, 96.21 72.65, 123.68 38.61 M1.65 178.98 C46.06 128.94, 90.15 78.4, 123.68 38.61 M2.7 183.87 C31.76 144.91, 67.15 107.58, 123.41 45.01 M2.7 183.87 C34.79 147.63, 67.19 112.68, 123.41 45.01 M4.41 188.01 C42.2 145.14, 81.29 100.45, 123.81 50.65 M4.41 188.01 C40.42 146.56, 76.05 105.23, 123.81 50.65 M6.77 191.39 C45.94 147.74, 85.41 101.39, 123.55 57.05 M6.77 191.39 C37.96 154.65, 69.43 117.15, 123.55 57.05 M7.82 196.27 C46.17 154.13, 81.96 109.5, 123.29 63.45 M7.82 196.27 C45.84 154.29, 82.6 113.4, 123.29 63.45 M11.49 198.14 C47.55 154, 85.91 110.38, 123.68 69.09 M11.49 198.14 C40.25 166.62, 67.73 134.66, 123.68 69.09 M14.51 200.77 C51.38 155.39, 89.87 114.21, 123.42 75.49 M14.51 200.77 C40.22 172.73, 64.75 143.99, 123.42 75.49 M18.19 202.64 C51.7 168.67, 81.4 128.72, 123.81 81.13 M18.19 202.64 C54.7 158.47, 92.86 116, 123.81 81.13 M23.18 203 C59.53 163.04, 94.01 124.29, 123.55 87.53 M23.18 203 C49.17 171.56, 77.53 139.84, 123.55 87.53 M28.82 202.6 C57.87 168.45, 89.9 132.05, 123.29 93.92 M28.82 202.6 C66.05 160.17, 102.69 116.28, 123.29 93.92 M33.81 202.96 C56.88 176.92, 78.03 150.55, 123.69 99.57 M33.81 202.96 C59.21 171.81, 86.67 139.99, 123.69 99.57 M39.45 202.57 C56.67 180.07, 77.08 161.64, 123.42 105.97 M39.45 202.57 C68.75 169.58, 99.13 135.89, 123.42 105.97 M44.44 202.93 C63.69 180.36, 83.71 158.92, 123.16 112.36 M44.44 202.93 C71.01 172.41, 96.86 141.15, 123.16 112.36 M49.42 203.29 C66.77 183.06, 83.84 161.92, 123.56 118.01 M49.42 203.29 C65.69 184.06, 83.75 165.71, 123.56 118.01 M55.07 202.89 C71 186.92, 86.25 171.38, 123.3 124.4 M55.07 202.89 C72.47 183.55, 89.01 162.53, 123.3 124.4 M60.05 203.25 C85.5 172.52, 109.84 145.6, 123.03 130.8 M60.05 203.25 C74.51 186.34, 89.47 169.39, 123.03 130.8 M65.7 202.86 C85.71 178.65, 105.96 157.87, 123.43 136.45 M65.7 202.86 C82.88 183.13, 100.46 163.66, 123.43 136.45 M70.68 203.22 C89.62 181.3, 107.7 159.72, 123.17 142.84 M70.68 203.22 C90.86 181.23, 109.35 157.28, 123.17 142.84 M76.33 202.83 C88.17 188.03, 105.3 170.82, 123.56 148.49 M76.33 202.83 C92.2 184.95, 107.97 165.62, 123.56 148.49 M81.31 203.19 C94.97 187.46, 106.81 173.85, 123.3 154.88 M81.31 203.19 C93.83 189.57, 104.27 178.02, 123.3 154.88 M86.3 203.55 C94.83 192.81, 102.69 183.32, 123.04 161.28 M86.3 203.55 C94.97 193.41, 102.76 183.3, 123.04 161.28 M91.29 203.91 C99.31 190.89, 112.3 183.06, 123.43 166.92 M91.29 203.91 C101.42 191.04, 113.78 179.03, 123.43 166.92 M97.59 202.76 C103.42 196.32, 111.75 185.55, 123.17 173.32 M97.59 202.76 C104.31 193.83, 112.52 186.28, 123.17 173.32 M103.88 201.61 C108.48 197.71, 114.73 188.31, 121.6 181.23 M103.88 201.61 C108.46 196.61, 112.14 192.57, 121.6 181.23" stroke="#15aabf" stroke-width="0.5" fill="none"></path><path d="M30.25 0 M30.25 0 C48.44 0.6, 64.4 -0.21, 90.75 0 M30.25 0 C52.84 0.35, 73.56 -0.88, 90.75 0 M90.75 0 C111.36 -0.48, 121.67 8.37, 121 30.25 M90.75 0 C109.62 -1.36, 119.35 11.58, 121 30.25 M121 30.25 C121.7 72.96, 120.56 116.06, 121 172.75 M121 30.25 C120.62 63.18, 120.77 95.37, 121 172.75 M121 172.75 C121.52 193.67, 111.69 204.7, 90.75 203 M121 172.75 C122.15 192.32, 112.36 202.3, 90.75 203 M90.75 203 C71.6 201.69, 50.26 201.85, 30.25 203 M90.75 203 C67.96 203.54, 46.01 202.43, 30.25 203 M30.25 203 C9.36 201.81, 0.94 194.66, 0 172.75 M30.25 203 C12.1 204.49, 0.65 194.72, 0 172.75 M0 172.75 C-2.73 140.53, -1.24 110.94, 0 30.25 M0 172.75 C1.68 133.73, 0.75 94.6, 0 30.25 M0 30.25 C0.07 8.65, 11.34 -0.81, 30.25 0 M0 30.25 C-1.49 10.25, 10.42 -2.15, 30.25 0" stroke="#fff" stroke-width="1" fill="none"></path></g><g transform="translate(359.9990234375 299.5) rotate(0 38.5009765625 84)"><text x="38.5009765625" y="0" font-family="Virgil, Segoe UI Emoji" font-size="20px" fill="#fff" text-anchor="middle" style="white-space: pre;" direction="ltr" dominant-baseline="text-before-edge"></text><text x="38.5009765625" y="24" font-family="Virgil, Segoe UI Emoji" font-size="20px" fill="#fff" text-anchor="middle" style="white-space: pre;" direction="ltr" dominant-baseline="text-before-edge"></text><text x="38.5009765625" y="48" font-family="Virgil, Segoe UI Emoji" font-size="20px" fill="#fff" text-anchor="middle" style="white-space: pre;" direction="ltr" dominant-baseline="text-before-edge"></text><text x="38.5009765625" y="72" font-family="Virgil, Segoe UI Emoji" font-size="20px" fill="#fff" text-anchor="middle" style="white-space: pre;" direction="ltr" dominant-baseline="text-before-edge"></text><text x="38.5009765625" y="96" font-family="Virgil, Segoe UI Emoji" font-size="20px" fill="#fff" text-anchor="middle" style="white-space: pre;" direction="ltr" dominant-baseline="text-before-edge">Mobile </text><text x="38.5009765625" y="120" font-family="Virgil, Segoe UI Emoji" font-size="20px" fill="#fff" text-anchor="middle" style="white-space: pre;" direction="ltr" dominant-baseline="text-before-edge">Delivery </text><text x="38.5009765625" y="144" font-family="Virgil, Segoe UI Emoji" font-size="20px" fill="#fff" text-anchor="middle" style="white-space: pre;" direction="ltr" dominant-baseline="text-before-edge">App</text></g><g stroke-linecap="round" transform="translate(204 113) rotate(0 73.5 41)"><path d="M20.35 -1.13 L126.06 0.92 L140.38 2.48 L144.65 7.07 L146.23 16.66 L147.61 61.74 L145.88 74.8 L140.16 78.48 L127.86 83.09 L21.97 81.46 L9.52 79.03 L1.51 73.67 L-0.38 65.79 L-0.04 15 L4.53 6.15 L9.41 4.63 L21.87 -1.63" stroke="none" stroke-width="0" fill="#12b886"></path><path d="M20.5 0 M20.5 0 C43.88 -0.61, 71.08 0.99, 126.5 0 M20.5 0 C63.36 -1.51, 104.6 -0.94, 126.5 0 M126.5 0 C140.19 0.56, 146.23 6.83, 147 20.5 M126.5 0 C140.74 2.25, 147.97 8.89, 147 20.5 M147 20.5 C148.38 30.3, 147.71 37.53, 147 61.5 M147 20.5 C146.96 34.09, 147.1 45.64, 147 61.5 M147 61.5 C148.22 74.2, 138.62 80.44, 126.5 82 M147 61.5 C148.43 76.11, 139.46 80.13, 126.5 82 M126.5 82 C100.39 81.99, 77.5 81.55, 20.5 82 M126.5 82 C89.65 81.49, 50.75 81.93, 20.5 82 M20.5 82 C5.25 82.77, 1.22 76.57, 0 61.5 M20.5 82 C7.99 81.35, -1.6 77.02, 0 61.5 M0 61.5 C-0.87 44.77, 1.18 31.21, 0 20.5 M0 61.5 C0.45 47.95, -0.6 36.2, 0 20.5 M0 20.5 C-1.97 6.29, 7.77 0.24, 20.5 0 M0 20.5 C1.07 4.55, 6.97 -0.14, 20.5 0" stroke="#fff" stroke-width="1" fill="none"></path></g><g transform="translate(220.91796875 130) rotate(0 56.58203125 24)"><text x="56.58203125" y="0" font-family="Virgil, Segoe UI Emoji" font-size="20px" fill="#fff" text-anchor="middle" style="white-space: pre;" direction="ltr" dominant-baseline="text-before-edge">Mobile UI </text><text x="56.58203125" y="24" font-family="Virgil, Segoe UI Emoji" font-size="20px" fill="#fff" text-anchor="middle" style="white-space: pre;" direction="ltr" dominant-baseline="text-before-edge">Components</text></g><g stroke-linecap="round" transform="translate(367 115) rotate(0 44.5 41)"><path d="M18.59 -1.85 L71.99 1.71 L84.51 4.12 L88.96 13.42 L90.44 18.72 L86.69 67.5 L83.75 77.61 L77.78 80.02 L69.71 81.57 L17.03 81.95 L5.68 76.75 L0.46 66.65 L-0.75 14.62 L4.54 7.86 L7.2 1.02 L21.23 -0.73" stroke="none" stroke-width="0" fill="#be4bdb"></path><path d="M20.5 0 M20.5 0 C29.52 -1.24, 39.44 0.57, 68.5 0 M20.5 0 C35.31 -0.41, 49.89 0.34, 68.5 0 M68.5 0 C80.44 1.66, 89.89 5.21, 89 20.5 M68.5 0 C83.16 -0.04, 91.24 5.69, 89 20.5 M89 20.5 C90.03 34.76, 90.82 51.79, 89 61.5 M89 20.5 C90.07 30.73, 90.22 41.7, 89 61.5 M89 61.5 C88.66 76.17, 81.9 82.14, 68.5 82 M89 61.5 C87.74 73.26, 84.14 83.21, 68.5 82 M68.5 82 C53.34 82.96, 36.07 83.85, 20.5 82 M68.5 82 C57 81.69, 46.09 80.88, 20.5 82 M20.5 82 C5.35 80.77, 0.35 76, 0 61.5 M20.5 82 C5.62 79.84, 2.18 73.61, 0 61.5 M0 61.5 C-0.82 51.09, 0.34 36.79, 0 20.5 M0 61.5 C-0.27 52.42, -1.26 43.65, 0 20.5 M0 20.5 C1.52 7.21, 7.22 -0.46, 20.5 0 M0 20.5 C-1.88 5.99, 7.22 -0.09, 20.5 0" stroke="#fff" stroke-width="1" fill="none"></path></g><g transform="translate(376.5537109375 120) rotate(0 34.9462890625 36)"><text x="34.9462890625" y="0" font-family="Virgil, Segoe UI Emoji" font-size="20px" fill="#fff" text-anchor="middle" style="white-space: pre;" direction="ltr" dominant-baseline="text-before-edge">colors, </text><text x="34.9462890625" y="24" font-family="Virgil, Segoe UI Emoji" font-size="20px" fill="#fff" text-anchor="middle" style="white-space: pre;" direction="ltr" dominant-baseline="text-before-edge">helpers </text><text x="34.9462890625" y="48" font-family="Virgil, Segoe UI Emoji" font-size="20px" fill="#fff" text-anchor="middle" style="white-space: pre;" direction="ltr" dominant-baseline="text-before-edge">...</text></g><g stroke-linecap="round" transform="translate(41.5 300) rotate(0 53 17.5)"><path d="M9.53 -0.13 L101.03 0.61 L106.74 6.24 L103.77 30 L102.93 34.5 L96.93 36.99 L5.3 32.84 L1.55 28.6 L-1.11 9.28 L1.56 1.84 L8.29 0.53" stroke="none" stroke-width="0" fill="#fa5252"></path><path d="M8.75 0 M8.75 0 C33.66 -0.02, 63.5 0.25, 97.25 0 M8.75 0 C35.09 0.23, 60.42 -0.86, 97.25 0 M97.25 0 C102.13 -1.93, 107.93 2.86, 106 8.75 M97.25 0 C102.06 -0.04, 106.6 0.97, 106 8.75 M106 8.75 C106.54 14.17, 105.81 21.09, 106 26.25 M106 8.75 C107 13.98, 105.79 19.94, 106 26.25 M106 26.25 C104.37 32.35, 102.34 36.74, 97.25 35 M106 26.25 C106.12 32.75, 104.71 33.54, 97.25 35 M97.25 35 C63.65 37.56, 29.66 34.32, 8.75 35 M97.25 35 C63.57 34.14, 29.2 34.77, 8.75 35 M8.75 35 C4.82 36.29, -0.54 33.9, 0 26.25 M8.75 35 C2.72 37.12, -0.17 31.35, 0 26.25 M0 26.25 C0.52 22.84, -1.36 14.91, 0 8.75 M0 26.25 C-0.12 22.95, -0.28 18.81, 0 8.75 M0 8.75 C1.46 2.43, 2.67 -1.48, 8.75 0 M0 8.75 C0.17 1.6, 4.74 0.91, 8.75 0" stroke="#fff" stroke-width="1" fill="none"></path></g><g stroke-linecap="round" transform="translate(193 291) rotate(0 51.5 13.5)"><path d="M7.04 0.05 L99.44 -0.18 L103.09 2.35 L103.25 24.25 L101.44 24.76 L94.67 26.05 L3.25 28.28 L0.15 24.66 L0.66 7.17 L2.42 2.1 L6.57 -1.2" stroke="none" stroke-width="0" fill="#12b886"></path><path d="M6.75 0 M6.75 0 C31.2 0.18, 56.45 2.15, 96.25 0 M6.75 0 C34.9 -0.97, 62.13 0.6, 96.25 0 M96.25 0 C99.69 1.79, 103.75 3.81, 103 6.75 M96.25 0 C99 -0.95, 102.48 0.01, 103 6.75 M103 6.75 C102.65 10.54, 102.08 14.14, 103 20.25 M103 6.75 C103.13 10.18, 102.55 13.66, 103 20.25 M103 20.25 C101.16 24.2, 102.57 28.75, 96.25 27 M103 20.25 C103.42 22.89, 99.59 27.69, 96.25 27 M96.25 27 C77.69 27.18, 58.65 28.24, 6.75 27 M96.25 27 C72.94 27.08, 48.7 27.68, 6.75 27 M6.75 27 C1.52 28.28, 1.49 25.47, 0 20.25 M6.75 27 C2.81 29.2, 1.72 26.74, 0 20.25 M0 20.25 C-0.37 15.45, 0.75 13.37, 0 6.75 M0 20.25 C0.62 15.67, -0.01 11.14, 0 6.75 M0 6.75 C-1.58 0.98, 2.13 -1.43, 6.75 0 M0 6.75 C-0.36 4.31, 3.83 0.7, 6.75 0" stroke="#fff" stroke-width="1" fill="none"></path></g><g stroke-linecap="round" transform="translate(354 325) rotate(0 44.5 8)"><path d="M5.48 -0.14 L88.34 1.79 L89.89 1.83 L89.06 14.77 L84.8 17.48 L2.82 17.24 L-0.18 12.43 L1.52 4.03 L-0.36 -0.83 L2.43 -0.42" stroke="none" stroke-width="0" fill="#be4bdb"></path><path d="M4 0 M4 0 C26.71 0.75, 48.98 2.43, 85 0 M4 0 C23.33 0.63, 43.39 0.17, 85 0 M85 0 C87.41 0.22, 87.07 -0.19, 89 4 M85 0 C85.45 -1.72, 87.36 1.12, 89 4 M89 4 C89.34 6.54, 89.42 8.45, 89 12 M89 4 C88.79 6.49, 89.02 9.11, 89 12 M89 12 C89.72 15.37, 88.36 17.57, 85 16 M89 12 C87.05 14.53, 89.34 14.18, 85 16 M85 16 C64.31 16.02, 39.35 14.79, 4 16 M85 16 C65.64 15.73, 44.56 16.83, 4 16 M4 16 C2.18 17.61, -0.09 14.7, 0 12 M4 16 C2.77 14.84, -0.45 13.3, 0 12 M0 12 C-0.51 9.45, 0.07 7.36, 0 4 M0 12 C0.08 9.11, -0.23 5.56, 0 4 M0 4 C-1.13 0.49, -0.32 -0.44, 4 0 M0 4 C0.79 1.05, 2.75 -0.14, 4 0" stroke="#fff" stroke-width="1" fill="none"></path></g><g stroke-linecap="round" transform="translate(191.5 323) rotate(0 53 18.5)"><path d="M10.67 -1.27 L102.52 1.83 L106.74 5.8 L107.39 32.6 L102.43 36.48 L96.43 36.6 L6.8 35.05 L2.39 31.69 L1.9 10.54 L1.77 4.13 L9.08 1.84" stroke="none" stroke-width="0" fill="#fa5252"></path><path d="M9.25 0 M9.25 0 C33.07 -1.53, 60.84 1.9, 96.75 0 M9.25 0 C27.25 0.37, 46.3 1.52, 96.75 0 M96.75 0 C102 1.91, 107.46 2.59, 106 9.25 M96.75 0 C102.63 -1.7, 106.17 1.77, 106 9.25 M106 9.25 C107.2 17.75, 107.83 22.91, 106 27.75 M106 9.25 C106.4 17.02, 106.53 22.97, 106 27.75 M106 27.75 C105.06 32.95, 101.9 35.32, 96.75 37 M106 27.75 C105.11 33.31, 103.56 37.23, 96.75 37 M96.75 37 C61.79 36.1, 29.9 37.86, 9.25 37 M96.75 37 C74.12 36.96, 51.35 38.29, 9.25 37 M9.25 37 C4.51 35.66, -0.19 34.75, 0 27.75 M9.25 37 C3.22 37.31, -0.64 32.43, 0 27.75 M0 27.75 C1.05 25.72, -1 21.74, 0 9.25 M0 27.75 C0 22.57, 0.7 17.41, 0 9.25 M0 9.25 C-1.25 1.53, 4.99 0.69, 9.25 0 M0 9.25 C1.18 2.24, 2.29 -2.07, 9.25 0" stroke="#fff" stroke-width="1" fill="none"></path></g><g stroke-linecap="round" transform="translate(353 294) rotate(0 45.5 11.5)"><path d="M4.21 -1.4 L89.08 2.17 L89.43 2.66 L92.44 20.14 L83.75 24.46 L1.33 22.22 L-1.14 19.79 L-1.82 6.43 L1.26 1.75 L3.89 -1.21" stroke="none" stroke-width="0" fill="#fa5252"></path><path d="M5.75 0 M5.75 0 C26.95 -0.14, 50.47 -0.6, 85.25 0 M5.75 0 C29.46 -0.48, 52.7 0.23, 85.25 0 M85.25 0 C88.06 1.58, 89.92 2.32, 91 5.75 M85.25 0 C89.17 1.51, 91.86 3.05, 91 5.75 M91 5.75 C91.07 9.57, 90.14 12.06, 91 17.25 M91 5.75 C90.7 10.51, 91.48 14.81, 91 17.25 M91 17.25 C92.2 21.1, 89.7 23.43, 85.25 23 M91 17.25 C91.78 23.35, 90.28 23.41, 85.25 23 M85.25 23 C64.15 23.63, 39.06 22.88, 5.75 23 M85.25 23 C69.83 23.95, 52.69 24.17, 5.75 23 M5.75 23 C1.76 23.38, 0.31 21.86, 0 17.25 M5.75 23 C2.3 20.74, -1.59 22.4, 0 17.25 M0 17.25 C0.69 13.78, 0.74 7.76, 0 5.75 M0 17.25 C-0.33 13.22, 0.07 8.45, 0 5.75 M0 5.75 C-1.32 3.62, 1.88 -0.29, 5.75 0 M0 5.75 C-1.87 1.62, 3.6 -1.93, 5.75 0" stroke="#fff" stroke-width="1" fill="none"></path></g><g stroke-linecap="round" transform="translate(356 347) rotate(0 42.5 10.5)"><path d="M5.23 1.29 L80.73 2.03 L84.64 2.67 L83.04 17.79 L81.22 19.32 L4.51 21.03 L-0.22 17.41 L0.25 6.99 L2.34 0.29 L3.88 -0.05" stroke="none" stroke-width="0" fill="#12b886"></path><path d="M5.25 0 M5.25 0 C33.74 -0.45, 60.13 -0.72, 79.75 0 M5.25 0 C29.07 0.7, 54.35 0.14, 79.75 0 M79.75 0 C83.57 0.02, 84.57 0.93, 85 5.25 M79.75 0 C82.96 1.12, 83.33 3.86, 85 5.25 M85 5.25 C85.16 8.26, 85.9 9.24, 85 15.75 M85 5.25 C85.18 7.4, 85.25 9.59, 85 15.75 M85 15.75 C84.28 19.89, 82.99 19.56, 79.75 21 M85 15.75 C85.06 20.5, 83.78 19.17, 79.75 21 M79.75 21 C58.3 22.78, 42.1 22.67, 5.25 21 M79.75 21 C65.17 21.48, 48.7 21.43, 5.25 21 M5.25 21 C0.26 19.13, 0.61 19.77, 0 15.75 M5.25 21 C0.2 21.46, 1.41 19.26, 0 15.75 M0 15.75 C0.54 13.33, 0.63 10.15, 0 5.25 M0 15.75 C0.12 13.09, -0.57 10.58, 0 5.25 M0 5.25 C1.09 1.38, 0.39 0.16, 5.25 0 M0 5.25 C0.77 0.33, 3.9 -0.05, 5.25 0" stroke="#fff" stroke-width="1" fill="none"></path></g><g stroke-linecap="round" transform="translate(50 341) rotate(0 44.49999999999997 8)"><path d="M3.83 0.74 L87.11 -1.46 L88.41 2.41 L87.39 12.8 L84.94 15.01 L1.99 15.47 L-0.3 14.48 L1.5 5.69 L2.08 -0.36 L5.89 0.21" stroke="none" stroke-width="0" fill="#be4bdb"></path><path d="M4 0 M4 0 C28.19 -0.61, 53.23 -0.54, 85 0 M4 0 C33.62 0.35, 62.55 0.53, 85 0 M85 0 C89.13 -1.6, 88.62 1.55, 89 4 M85 0 C88.68 -2.23, 86.73 1.16, 89 4 M89 4 C89.59 7.63, 89.06 10.14, 89 12 M89 4 C89.19 7.07, 88.67 9.69, 89 12 M89 12 C87.95 16.41, 88.18 15.48, 85 16 M89 12 C88.37 15.47, 86.97 14.72, 85 16 M85 16 C66.09 16.49, 45.9 15.98, 4 16 M85 16 C64.84 15.98, 45.63 16.23, 4 16 M4 16 C0.6 16.35, -0.56 13.21, 0 12 M4 16 C0.43 15.85, -1.4 16.51, 0 12 M0 12 C0.53 10.62, 0.09 7.75, 0 4 M0 12 C0.18 10.22, 0.38 8.83, 0 4 M0 4 C-0.6 2.64, 2.39 -1.78, 4 0 M0 4 C-0.34 0.02, 3.52 -1.72, 4 0" stroke="#fff" stroke-width="1" fill="none"></path></g><g stroke-linecap="round" transform="translate(200 369) rotate(0 44.5 8)"><path d="M3.38 -1.45 L86.07 1.86 L89.43 0.77 L88.95 14.49 L86.15 14.36 L3.3 16.07 L-0.34 12.44 L1.51 4.9 L-0.84 -0.99 L5.38 0.94" stroke="none" stroke-width="0" fill="#be4bdb"></path><path d="M4 0 M4 0 C30.01 0.4, 55.57 -1.18, 85 0 M4 0 C22.72 -0.51, 40.79 0.83, 85 0 M85 0 C86.45 2, 88.13 -0.27, 89 4 M85 0 C88.48 1.72, 90.02 2.76, 89 4 M89 4 C89.38 5.85, 89.12 8.72, 89 12 M89 4 C88.9 6.12, 88.77 8.19, 89 12 M89 12 C88.83 13.76, 87.43 16.34, 85 16 M89 12 C87.92 15.53, 85.59 15.51, 85 16 M85 16 C57.89 14.04, 27.96 15.6, 4 16 M85 16 C52.59 15.61, 22.2 14.59, 4 16 M4 16 C0.92 15.77, -1.4 14.4, 0 12 M4 16 C3.41 16.88, -1.7 16.58, 0 12 M0 12 C0.03 10.32, -0.73 8.07, 0 4 M0 12 C-0.17 9.31, -0.19 6.31, 0 4 M0 4 C1.48 -0.1, 2.3 -1.4, 4 0 M0 4 C-0.66 1.09, 2.2 -1.49, 4 0" stroke="#fff" stroke-width="1" fill="none"></path></g><g stroke-linecap="round"><g transform="translate(57 234) rotate(0 193.14662533475553 -0.02779290229082676)"><path d="M0.34 1.11 C65.05 1.08, 322.83 -0.99, 387.24 -1.17 M-0.94 0.65 C63.72 0.81, 321.94 -0.37, 386.41 -0.24" stroke="#a61e4d" stroke-width="1" fill="none"></path></g></g><mask></mask><g transform="translate(131.861328125 36.39999999999998) rotate(0 116.138671875 21.599999999999994)"><text x="116.138671875" y="0" font-family="Virgil, Segoe UI Emoji" font-size="36px" fill="#fff" text-anchor="middle" style="white-space: pre;" direction="ltr" dominant-baseline="text-before-edge">My Food Store</text></g></svg>